<svg width="118" height="115" viewBox="0 0 118 115" fill="none" xmlns="http://www.w3.org/2000/svg">
<g filter="url(#filter0_d_362_1242)">
<path d="M114 53.827C114 24.0991 89.3757 0 59 0C28.6243 0 4 24.0991 4 53.827C4 80.6931 24.1126 102.962 50.4063 107V69.3863H36.4414V53.827H50.4063V41.9682C50.4063 28.4778 58.6176 21.0262 71.1806 21.0262C77.1983 21.0262 83.4922 22.0775 83.4922 22.0775V35.3239H76.557C69.725 35.3239 67.5938 39.4734 67.5938 43.7302V53.827H82.8477L80.4092 69.3863H67.5938V107C93.8874 102.962 114 80.6942 114 53.827Z" fill="white"/>
</g>
<defs>
<filter id="filter0_d_362_1242" x="0" y="0" width="118" height="115" filterUnits="userSpaceOnUse" color-interpolation-filters="sRGB">
<feFlood flood-opacity="0" result="BackgroundImageFix"/>
<feColorMatrix in="SourceAlpha" type="matrix" values="0 0 0 0 0 0 0 0 0 0 0 0 0 0 0 0 0 0 127 0" result="hardAlpha"/>
<feOffset dy="4"/>
<feGaussianBlur stdDeviation="2"/>
<feComposite in2="hardAlpha" operator="out"/>
<feColorMatrix type="matrix" values="0 0 0 0 0 0 0 0 0 0 0 0 0 0 0 0 0 0 0.25 0"/>
<feBlend mode="normal" in2="BackgroundImageFix" result="effect1_dropShadow_362_1242"/>
<feBlend mode="normal" in="SourceGraphic" in2="effect1_dropShadow_362_1242" result="shape"/>
</filter>
</defs>
</svg>
