<svg width="115" height="113" viewBox="0 0 115 113" fill="none" xmlns="http://www.w3.org/2000/svg">
<g filter="url(#filter0_d_362_1243)">
<path d="M57.2794 9.9668C71.4903 9.9668 73.1718 10.0204 78.7848 10.27C83.9731 10.5011 86.7912 11.3469 88.6671 12.0586C91.1514 13.0013 92.9238 14.1277 94.787 15.9451C96.6502 17.7646 97.8037 19.4954 98.767 21.9213C99.4958 23.7532 100.362 26.5051 100.599 31.5716C100.854 37.0507 100.909 38.6948 100.909 52.572C100.909 66.4492 100.854 68.0912 100.599 73.5724C100.362 78.6389 99.4958 81.3908 98.767 83.2226C97.8016 85.6486 96.6481 87.3794 94.787 89.1989C92.9238 91.0184 91.1514 92.1447 88.6671 93.0854C86.7912 93.7971 83.9731 94.6429 78.7848 94.8739C73.1739 95.1235 71.4903 95.1772 57.2794 95.1772C43.0686 95.1772 41.3849 95.1235 35.7741 94.8739C30.5857 94.6429 27.7677 93.7971 25.8917 93.0854C23.4074 92.1426 21.635 91.0163 19.7718 89.1989C17.9086 87.3794 16.7551 85.6486 15.7918 83.2226C15.063 81.3908 14.1969 78.6389 13.9603 73.5724C13.7047 68.0933 13.6498 66.4492 13.6498 52.572C13.6498 38.6948 13.7047 37.0527 13.9603 31.5716C14.1969 26.5051 15.063 23.7532 15.7918 21.9213C16.7573 19.4954 17.9107 17.7646 19.7718 15.9451C21.6329 14.1256 23.4074 12.9993 25.8917 12.0586C27.7677 11.3469 30.5857 10.5011 35.7741 10.27C41.3849 10.0204 43.0686 9.9668 57.2794 9.9668ZM57.2794 0.603271C42.8256 0.603271 41.0131 0.663096 35.3368 0.916833C29.6731 1.16851 25.803 2.04731 22.4188 3.3325C18.9184 4.66101 15.9503 6.43717 12.9928 9.3273C10.0331 12.2174 8.21427 15.1138 6.85381 18.532C5.53772 21.8368 4.63779 25.616 4.38006 31.1467C4.12022 36.6897 4.05896 38.4597 4.05896 52.5741C4.05896 66.6884 4.12022 68.4584 4.38006 74.0014C4.63779 79.5321 5.53772 83.3113 6.85381 86.6161C8.21427 90.0344 10.0331 92.9327 12.9928 95.8208C15.9524 98.7109 18.9184 100.487 22.4188 101.816C25.803 103.101 29.6731 103.98 35.3368 104.231C41.0131 104.485 42.8256 104.545 57.2794 104.545C71.7332 104.545 73.5457 104.485 79.222 104.231C84.8857 103.98 88.7558 103.101 92.14 101.816C95.6405 100.487 98.6085 98.7109 101.566 95.8208C104.526 92.9307 106.345 90.0344 107.705 86.6161C109.021 83.3113 109.921 79.5321 110.179 74.0014C110.439 68.4584 110.5 66.6884 110.5 52.5741C110.5 38.4597 110.439 36.6897 110.179 31.1467C109.921 25.616 109.021 21.8368 107.705 18.532C106.345 15.1138 104.526 12.2154 101.566 9.3273C98.6064 6.43717 95.6405 4.66101 92.14 3.3325C88.7558 2.04731 84.8857 1.16851 79.222 0.916833C73.5457 0.663096 71.7332 0.603271 57.2794 0.603271Z" fill="white"/>
<path d="M57.28 25.8862C42.1861 25.8862 29.9526 37.8346 29.9526 52.572C29.9526 67.3094 42.1882 79.2577 57.28 79.2577C72.3718 79.2577 84.6074 67.3094 84.6074 52.572C84.6074 37.8346 72.3718 25.8862 57.28 25.8862ZM57.28 69.8963C47.4822 69.8963 39.5413 62.1397 39.5413 52.574C39.5413 43.0083 47.4843 35.2518 57.28 35.2518C67.0757 35.2518 75.0187 43.0083 75.0187 52.574C75.0187 62.1397 67.0757 69.8963 57.28 69.8963Z" fill="white"/>
<path d="M85.6889 31.0658C89.2159 31.0658 92.075 28.2738 92.075 24.8297C92.075 21.3855 89.2159 18.5935 85.6889 18.5935C82.162 18.5935 79.3028 21.3855 79.3028 24.8297C79.3028 28.2738 82.162 31.0658 85.6889 31.0658Z" fill="white"/>
</g>
<defs>
<filter id="filter0_d_362_1243" x="0.05896" y="0.603271" width="114.441" height="111.942" filterUnits="userSpaceOnUse" color-interpolation-filters="sRGB">
<feFlood flood-opacity="0" result="BackgroundImageFix"/>
<feColorMatrix in="SourceAlpha" type="matrix" values="0 0 0 0 0 0 0 0 0 0 0 0 0 0 0 0 0 0 127 0" result="hardAlpha"/>
<feOffset dy="4"/>
<feGaussianBlur stdDeviation="2"/>
<feComposite in2="hardAlpha" operator="out"/>
<feColorMatrix type="matrix" values="0 0 0 0 0 0 0 0 0 0 0 0 0 0 0 0 0 0 0.25 0"/>
<feBlend mode="normal" in2="BackgroundImageFix" result="effect1_dropShadow_362_1243"/>
<feBlend mode="normal" in="SourceGraphic" in2="effect1_dropShadow_362_1243" result="shape"/>
</filter>
</defs>
</svg>
