<svg width="46" height="46" viewBox="0 0 46 46" fill="none" xmlns="http://www.w3.org/2000/svg">
<g clip-path="url(#clip0_850_2730)">
<path d="M38.3525 29.4783C35.995 29.4783 33.7142 29.095 31.5867 28.405C30.9158 28.175 30.1683 28.3475 29.6508 28.865L26.6417 32.6408C21.2175 30.0533 16.1383 25.1658 13.4358 19.55L17.1733 16.3683C17.6908 15.8317 17.8442 15.0842 17.6333 14.4133C16.9242 12.2858 16.56 10.005 16.56 7.6475C16.56 6.6125 15.6975 5.75 14.6625 5.75H8.03083C6.99583 5.75 5.75 6.21 5.75 7.6475C5.75 25.4533 20.5658 40.25 38.3525 40.25C39.7133 40.25 40.25 39.0425 40.25 37.9883V31.3758C40.25 30.3408 39.3875 29.4783 38.3525 29.4783Z" fill="#736A5F"/>
</g>
<defs>
<clipPath id="clip0_850_2730">
<rect width="46" height="46" fill="white"/>
</clipPath>
</defs>
</svg>
