<svg width="296" height="614" viewBox="0 0 296 614" fill="none" xmlns="http://www.w3.org/2000/svg">
<path fill-rule="evenodd" clip-rule="evenodd" d="M49.3652 50.3309C49.3652 22.9903 71.5333 0.822419 98.8739 0.822419C126.215 0.822419 148.383 22.9903 148.383 50.3309C148.383 77.6715 126.215 99.8398 98.8739 99.8398C71.5333 99.8398 49.3652 77.6715 49.3652 50.3309Z" fill="#E4011E" fill-opacity="0.278"/>
<path fill-rule="evenodd" clip-rule="evenodd" d="M217.288 158.03C217.288 136.401 234.822 118.867 256.452 118.867C278.081 118.867 295.615 136.401 295.615 158.03C295.615 179.66 278.081 197.194 256.452 197.194C234.822 197.194 217.288 179.66 217.288 158.03Z" fill="#D6A600" fill-opacity="0.278"/>
<path fill-rule="evenodd" clip-rule="evenodd" d="M170.365 279.493C170.365 260.881 185.452 245.779 204.079 245.779C222.706 245.779 237.793 260.881 237.793 279.493C237.793 298.121 222.706 313.207 204.079 313.207C185.452 313.207 170.365 298.121 170.365 279.493Z" fill="#1B973A" fill-opacity="0.278"/>
<path fill-rule="evenodd" clip-rule="evenodd" d="M124.736 434.762C124.736 420.784 136.02 409.454 149.953 409.454C163.885 409.454 175.169 420.784 175.169 434.762C175.169 448.741 163.885 460.071 149.953 460.071C136.02 460.071 124.736 448.741 124.736 434.762Z" fill="#C50E28" fill-opacity="0.278"/>
<path fill-rule="evenodd" clip-rule="evenodd" d="M207.496 496.556C207.496 476.096 224.076 459.516 244.535 459.516C264.994 459.516 281.574 476.096 281.574 496.556C281.574 517.015 264.994 533.595 244.535 533.595C224.076 533.595 207.496 517.015 207.496 496.556Z" fill="#E83418" fill-opacity="0.278"/>
<path fill-rule="evenodd" clip-rule="evenodd" d="M119.748 531.563C119.748 518.401 130.416 507.732 143.579 507.732C156.741 507.732 167.409 518.401 167.409 531.563C167.409 544.725 156.741 555.394 143.579 555.394C130.416 555.394 119.748 544.725 119.748 531.563Z" fill="#00A6D9" fill-opacity="0.278"/>
<path fill-rule="evenodd" clip-rule="evenodd" d="M64.5137 469.123C64.5137 459.132 72.6266 451.019 82.6176 451.019C92.6086 451.019 100.722 459.132 100.722 469.123C100.722 479.114 92.6086 487.227 82.6176 487.227C72.6266 487.227 64.5137 479.114 64.5137 469.123Z" fill="#FABD00" fill-opacity="0.278"/>
<path fill-rule="evenodd" clip-rule="evenodd" d="M0.0410156 588.646C0.0410156 574.667 11.3714 563.337 25.3496 563.337C39.3277 563.337 50.6581 574.667 50.6581 588.646C50.6581 602.624 39.3277 613.954 25.3496 613.954C11.3714 613.954 0.0410156 602.624 0.0410156 588.646Z" fill="#970A31" fill-opacity="0.278"/>
</svg>
