<svg width="364" height="319" viewBox="0 0 364 319" fill="none" xmlns="http://www.w3.org/2000/svg">
<path fill-rule="evenodd" clip-rule="evenodd" d="M143.644 58.661C143.644 26.3172 169.814 0.100327 202.112 0.100327C234.409 0.100327 260.58 26.3172 260.58 58.661C260.58 91.0048 234.409 117.222 202.112 117.222C169.814 117.222 143.644 91.0048 143.644 58.661Z" fill="#1B973A" fill-opacity="0.18"/>
<path fill-rule="evenodd" clip-rule="evenodd" d="M193.152 141.052C193.152 94.0223 231.315 55.8901 278.407 55.8901C325.499 55.8901 363.662 94.0223 363.662 141.052C363.662 188.083 325.499 226.215 278.407 226.215C231.315 226.215 193.152 188.083 193.152 141.052Z" fill="#E83418" fill-opacity="0.18"/>
<path fill-rule="evenodd" clip-rule="evenodd" d="M0.65918 276.37C0.65918 253.371 19.3481 234.713 42.409 234.713C65.47 234.713 84.1589 253.371 84.1589 276.37C84.1589 299.369 65.47 318.027 42.409 318.027C19.3481 318.027 0.65918 299.369 0.65918 276.37Z" fill="#970A31" fill-opacity="0.18"/>
</svg>
