<svg width="312" height="580" viewBox="0 0 312 580" fill="none" xmlns="http://www.w3.org/2000/svg">
<path fill-rule="evenodd" clip-rule="evenodd" d="M270.65 559.352C270.65 548.022 279.826 538.846 291.156 538.846C302.486 538.846 311.661 548.022 311.661 559.352C311.661 570.682 302.486 579.857 291.156 579.857C279.826 579.857 270.65 570.682 270.65 559.352Z" fill="#EC6A06" fill-opacity="0.278"/>
<path fill-rule="evenodd" clip-rule="evenodd" d="M142.63 522.59C142.63 510.044 152.806 499.868 165.352 499.868C177.899 499.868 188.074 510.044 188.074 522.59C188.074 535.137 177.899 545.312 165.352 545.312C152.806 545.312 142.63 535.137 142.63 522.59Z" fill="#DC097B" fill-opacity="0.278"/>
<path fill-rule="evenodd" clip-rule="evenodd" d="M179.392 470.403C179.392 456.471 190.676 445.187 204.608 445.187C218.54 445.187 229.824 456.471 229.824 470.403C229.824 484.335 218.54 495.619 204.608 495.619C190.676 495.619 179.392 484.335 179.392 470.403Z" fill="#F5A20B" fill-opacity="0.278"/>
<path fill-rule="evenodd" clip-rule="evenodd" d="M12.0225 484.904C12.0225 465.415 27.8603 449.62 47.399 449.62C66.9361 449.62 82.7755 465.415 82.7755 484.904C82.7755 504.393 66.9361 520.188 47.399 520.188C27.8603 520.188 12.0225 504.393 12.0225 484.904Z" fill="#D39206" fill-opacity="0.278"/>
<path fill-rule="evenodd" clip-rule="evenodd" d="M80.7441 373.51C80.7441 356.668 94.3913 343.029 111.225 343.029C128.059 343.029 141.706 356.668 141.706 373.51C141.706 390.352 128.059 403.991 111.225 403.991C94.3913 403.991 80.7441 390.352 80.7441 373.51Z" fill="#407936" fill-opacity="0.278"/>
<path fill-rule="evenodd" clip-rule="evenodd" d="M19.4131 332.314C19.4131 322.923 27.0226 315.318 36.4086 315.318C45.7946 315.318 53.4041 322.923 53.4041 332.314C53.4041 341.705 45.7946 349.31 36.4086 349.31C27.0226 349.31 19.4131 341.705 19.4131 332.314Z" fill="#0075BA" fill-opacity="0.278"/>
<path fill-rule="evenodd" clip-rule="evenodd" d="M0.384766 151.09C0.384766 132.324 15.6037 117.099 34.3758 117.099C53.1478 117.099 68.3668 132.324 68.3668 151.09C68.3668 169.856 53.1478 185.081 34.3758 185.081C15.6037 185.081 0.384766 169.856 0.384766 151.09Z" fill="#004C88" fill-opacity="0.278"/>
<path fill-rule="evenodd" clip-rule="evenodd" d="M80.7441 241.794C80.7441 232.404 88.3536 224.799 97.7397 224.799C107.126 224.799 114.735 232.404 114.735 241.794C114.735 251.185 107.126 258.79 97.7397 258.79C88.3536 258.79 80.7441 251.185 80.7441 241.794Z" fill="#28A838" fill-opacity="0.278"/>
<path fill-rule="evenodd" clip-rule="evenodd" d="M124.896 45.7C124.896 20.7609 145.124 0.532462 170.063 0.532462C195.002 0.532462 215.23 20.7609 215.23 45.7C215.23 70.6391 195.002 90.8672 170.063 90.8672C145.124 90.8672 124.896 70.6391 124.896 45.7Z" fill="#023067" fill-opacity="0.278"/>
</svg>
