<svg width="127" height="264" viewBox="0 0 127 264" fill="none" xmlns="http://www.w3.org/2000/svg">
<path fill-rule="evenodd" clip-rule="evenodd" d="M76.084 25.6188C76.084 11.6868 87.3681 0.402613 101.3 0.402613C115.232 0.402613 126.516 11.6868 126.516 25.6188C126.516 39.5508 115.232 50.835 101.3 50.835C87.3681 50.835 76.084 39.5508 76.084 25.6188Z" fill="#970A31" fill-opacity="0.278"/>
<path fill-rule="evenodd" clip-rule="evenodd" d="M81.0713 242.958C81.0713 231.628 90.2464 222.453 101.577 222.453C112.907 222.453 122.082 231.628 122.082 242.958C122.082 254.289 112.907 263.464 101.577 263.464C90.2464 263.464 81.0713 254.289 81.0713 242.958Z" fill="#EC6A06" fill-opacity="0.278"/>
<path fill-rule="evenodd" clip-rule="evenodd" d="M0.527344 204.164C0.527344 174.776 24.3472 150.961 53.7307 150.961C83.1188 150.961 106.934 174.776 106.934 204.164C106.934 233.552 83.1188 257.367 53.7307 257.367C24.3472 257.367 0.527344 233.552 0.527344 204.164Z" fill="#407936" fill-opacity="0.278"/>
</svg>
