<svg width="40" height="1311" viewBox="0 0 40 1311" fill="none" xmlns="http://www.w3.org/2000/svg">
<rect width="19.9861" height="437" fill="#E2F1F2"/>
<rect y="437" width="19.9861" height="58" fill="#F9FDFD"/>
<rect y="437" width="19.9861" height="58" fill="#F9FDFD"/>
<rect y="437" width="19.9861" height="58" fill="#F9FDFD"/>
<rect y="437" width="19.9861" height="58" fill="#F9FDFD"/>
<rect x="0.013916" y="681" width="19.9861" height="192" fill="#F9FDFD"/>
<rect x="0.013916" y="681" width="19.9861" height="192" fill="#F9FDFD"/>
<rect x="0.013916" y="681" width="19.9861" height="192" fill="#F9FDFD"/>
<rect x="0.013916" y="681" width="19.9861" height="192" fill="#F9FDFD"/>
<rect y="495" width="19.9861" height="186" fill="#FCF3E4"/>
<rect y="873" width="19.9861" height="438" fill="#98C0CC"/>
<rect x="20" width="19.9861" height="437" fill="#E2F1F2"/>
<rect x="20" y="437" width="19.9861" height="58" fill="#F9FDFD"/>
<rect x="20" y="437" width="19.9861" height="58" fill="#F9FDFD"/>
<rect x="20" y="437" width="19.9861" height="58" fill="#F9FDFD"/>
<rect x="20" y="437" width="19.9861" height="58" fill="#F9FDFD"/>
<rect x="20.0139" y="681" width="19.9861" height="192" fill="#F9FDFD"/>
<rect x="20.0139" y="681" width="19.9861" height="192" fill="#F9FDFD"/>
<rect x="20.0139" y="681" width="19.9861" height="192" fill="#F9FDFD"/>
<rect x="20.0139" y="681" width="19.9861" height="192" fill="#F9FDFD"/>
<rect x="20" y="495" width="19.9861" height="186" fill="#FCF3E4"/>
<rect x="20" y="873" width="19.9861" height="438" fill="#98C0CC"/>
</svg>
