<svg width="40" height="1100" viewBox="0 0 40 1100" fill="none" xmlns="http://www.w3.org/2000/svg">
<rect width="19.9861" height="366.667" fill="#E2F1F2"/>
<rect y="366.667" width="19.9861" height="48.6651" fill="#F9FDFD"/>
<rect y="366.667" width="19.9861" height="48.6651" fill="#F9FDFD"/>
<rect y="366.667" width="19.9861" height="48.6651" fill="#F9FDFD"/>
<rect y="366.667" width="19.9861" height="48.6651" fill="#F9FDFD"/>
<rect x="0.013916" y="571.396" width="19.9861" height="161.098" fill="#F9FDFD"/>
<rect x="0.013916" y="571.396" width="19.9861" height="161.098" fill="#F9FDFD"/>
<rect x="0.013916" y="571.396" width="19.9861" height="161.098" fill="#F9FDFD"/>
<rect x="0.013916" y="571.396" width="19.9861" height="161.098" fill="#F9FDFD"/>
<rect y="415.332" width="19.9861" height="156.064" fill="#FCF3E4"/>
<rect y="732.494" width="19.9861" height="367.506" fill="#98C0CC"/>
<rect x="20" width="19.9861" height="366.667" fill="#E2F1F2"/>
<rect x="20" y="366.667" width="19.9861" height="48.6651" fill="#F9FDFD"/>
<rect x="20" y="366.667" width="19.9861" height="48.6651" fill="#F9FDFD"/>
<rect x="20" y="366.667" width="19.9861" height="48.6651" fill="#F9FDFD"/>
<rect x="20" y="366.667" width="19.9861" height="48.6651" fill="#F9FDFD"/>
<rect x="20.0139" y="571.396" width="19.9861" height="161.098" fill="#F9FDFD"/>
<rect x="20.0139" y="571.396" width="19.9861" height="161.098" fill="#F9FDFD"/>
<rect x="20.0139" y="571.396" width="19.9861" height="161.098" fill="#F9FDFD"/>
<rect x="20.0139" y="571.396" width="19.9861" height="161.098" fill="#F9FDFD"/>
<rect x="20" y="415.332" width="19.9861" height="156.064" fill="#FCF3E4"/>
<rect x="20" y="732.494" width="19.9861" height="367.506" fill="#98C0CC"/>
</svg>
