<svg width="268" height="92" viewBox="0 0 268 92" fill="none" xmlns="http://www.w3.org/2000/svg">
<rect width="26" height="27" rx="3" transform="matrix(1 0 0 -1 210 27)" fill="#FCF3E4"/>
<rect width="26" height="27" rx="3" transform="matrix(1 0 0 -1 178 27)" fill="#FCF3E4"/>
<rect width="27" height="27" rx="3" transform="matrix(1 0 0 -1 241 27)" fill="#FCF3E4"/>
<rect width="26" height="26" rx="3" transform="matrix(1 0 0 -1 210 59)" fill="#FCF3E4"/>
<rect width="26" height="26" rx="3" transform="matrix(1 0 0 -1 178 59)" fill="#FCF3E4"/>
<rect width="27" height="26" rx="3" transform="matrix(1 0 0 -1 241 59)" fill="#FCF3E4"/>
<rect width="27" height="26" rx="3" transform="matrix(1 0 0 -1 146 59)" fill="#FCF3E4"/>
<rect width="26" height="26" rx="3" transform="matrix(1 0 0 -1 210 92)" fill="#FCF3E4"/>
<rect width="26" height="26" rx="3" transform="matrix(1 0 0 -1 178 92)" fill="#FCF3E4"/>
<rect width="27" height="26" rx="3" transform="matrix(1 0 0 -1 241 92)" fill="#FCF3E4"/>
<rect width="26" height="27" rx="3" transform="matrix(1 0 0 -1 64 27)" fill="#FCF3E4"/>
<rect width="26" height="27" rx="3" transform="matrix(1 0 0 -1 32 27)" fill="#FCF3E4"/>
<rect width="27" height="27" rx="3" transform="matrix(1 0 0 -1 95 27)" fill="#FCF3E4"/>
<rect width="27" height="27" rx="3" transform="matrix(1 0 0 -1 0 27)" fill="#FCF3E4"/>
<rect width="26" height="26" rx="3" transform="matrix(1 0 0 -1 64 59)" fill="#FCF3E4"/>
<rect width="26" height="26" rx="3" transform="matrix(1 0 0 -1 32 59)" fill="#FCF3E4"/>
<rect width="27" height="26" rx="3" transform="matrix(1 0 0 -1 0 59)" fill="#FCF3E4"/>
<rect width="26" height="26" rx="3" transform="matrix(1 0 0 -1 64 92)" fill="#FCF3E4"/>
<rect width="26" height="26" rx="3" transform="matrix(1 0 0 -1 32 92)" fill="#FCF3E4"/>
<rect width="27" height="26" rx="3" transform="matrix(1 0 0 -1 95 92)" fill="#FCF3E4"/>
<rect width="27" height="26" rx="3" transform="matrix(1 0 0 -1 0 92)" fill="#FCF3E4"/>
</svg>
