<svg width="156" height="156" viewBox="0 0 156 156" fill="none" xmlns="http://www.w3.org/2000/svg">
<path d="M2.05568 71.9631L1.99414 149.021C1.99414 151.836 3.20924 154.112 4.70118 154.112H151.004C152.496 154.112 153.711 151.836 153.711 149.021V7.302C153.711 4.48731 152.496 2.21123 151.004 2.21123H4.70118C3.20924 2.21123 1.99414 4.48731 1.99414 7.302L2.05568 29.4814" stroke="#736A5F" stroke-width="3.40909"/>
<path d="M18.9625 44.6721H21.8885V51.975C21.8885 56.2068 21.5499 62.615 19.4219 66.7018C18.8657 66.2423 17.5357 65.541 16.7861 65.275C18.8174 61.4785 18.9625 55.8925 18.9625 51.9992V44.6721ZM21.2355 44.6721H38.2112V50.379H21.2355V48.1785H35.3094V46.8727H21.2355V44.6721ZM30.7632 60.2694H36.7603V61.8412H30.7632V60.2694ZM29.4574 51.709H38.9125V53.5227H29.4574V51.709ZM36.1799 60.2694H36.6394L37.0988 60.1968L38.5739 60.7772C36.8086 64.4528 32.8186 66.0247 28.0306 66.7259C27.8372 66.1456 27.3535 65.275 26.9425 64.7914C31.1501 64.3803 34.8015 63.0987 36.1799 60.5354V60.2694ZM30.8357 61.3092C32.3834 63.2196 35.7205 64.2836 39.7588 64.5979C39.2752 65.0574 38.6706 65.9521 38.3805 66.5567C34.0761 66.0005 30.7148 64.477 28.877 61.817L30.8357 61.3092ZM30.8357 59.1328L33.0363 59.7616C31.8514 61.4785 29.7959 62.9778 27.8855 63.945C27.4986 63.5339 26.6523 62.7359 26.1686 62.3732C28.0306 61.6236 29.8685 60.4387 30.8357 59.1328ZM30.7632 57.4885V58.3107H35.6237V57.4885H30.7632ZM30.7632 55.5298V56.3036H35.6237V55.5298H30.7632ZM28.4417 54.2723H38.0661V59.5681H28.4417V54.2723ZM29.5541 50.3548L31.7546 51.1045C30.8357 53.0874 29.2881 55.2396 27.7405 56.5454C27.5228 56.0376 26.8941 54.7801 26.483 54.2239C27.6921 53.2808 28.877 51.8299 29.5541 50.3548ZM25.3948 54.3932L27.6195 55.2396C26.3863 57.3676 24.355 59.5681 22.4205 60.8981C22.2512 60.3661 21.5983 59.0119 21.2355 58.4074C22.7832 57.4401 24.4275 55.965 25.3948 54.3932ZM23.3635 58.4316L25.0321 56.7388L25.8785 57.0048V66.6776H23.3635V58.4316ZM25.1772 50.5725L27.4019 51.3221C26.4346 52.7488 24.8628 54.2723 23.4845 55.1912C23.1459 54.7318 22.3479 53.7645 21.8643 53.3292C23.1217 52.6521 24.4034 51.6365 25.1772 50.5725ZM44.6194 44.8656H63.2877V47.4772H44.6194V44.8656ZM44.8128 63.679H63.4086V66.2665H44.8128V63.679ZM54.5581 59.3988H61.3774V61.8896H54.5581V59.3988ZM46.1428 49.7503H53.6634V51.9267H46.1428V49.7503ZM42.709 44.8656H45.4415V52.3378C45.4415 56.4728 45.1514 62.6634 43.1926 66.6534C42.6606 66.2423 41.4515 65.5652 40.7503 65.3234C42.5639 61.5994 42.709 56.1585 42.709 52.3378V44.8656ZM48.7786 47.8158H51.1726V57.7061H48.7786V47.8158ZM52.9137 57.295H55.743V65.3234H52.9137V57.295ZM47.5212 59.1087H50.2295V65.0332H47.5212V59.1087ZM48.8028 50.9594L50.3746 51.4914C49.5766 53.7403 48.0774 56.1585 46.5781 57.4159C46.1912 56.9081 45.4899 56.0859 44.9821 55.699C46.4572 54.7076 48.0048 52.7488 48.8028 50.9594ZM54.2437 49.7503H62.9008V51.9267H54.2437V49.7503ZM56.9763 47.8158H59.3945V57.7061H56.9763V47.8158ZM56.8795 50.9594L58.4514 51.4914C57.6292 53.6436 56.1541 55.9408 54.6548 57.1499C54.2679 56.6179 53.5425 55.8199 53.0588 55.4088C54.5339 54.4899 56.0815 52.6521 56.8795 50.9594ZM51.0759 52.1443C51.6079 52.4345 53.3006 53.571 53.7359 53.8854L52.3334 55.6748C51.753 54.9978 50.3746 53.7161 49.6975 53.1599L51.0759 52.1443ZM59.5395 51.0319C60.3859 52.7488 62.0303 54.4658 63.8197 55.2879C63.2877 55.7474 62.5623 56.6179 62.1754 57.2225C60.3375 56.0618 58.7415 53.8128 57.871 51.5398L59.5395 51.0319ZM68.4143 58.891H84.5194V66.7501H81.5934V60.7047H71.2194V66.7743H68.4143V58.891ZM69.8894 61.5994H82.6332V63.2921H69.8894V61.5994ZM69.8894 64.2352H82.6332V66.073H69.8894V64.2352ZM74.7257 43.9225H77.6517V57.4159H74.7257V43.9225ZM67.8581 45.4459H84.3984V52.6279H67.5921V50.9352H81.5208V47.1387H67.8581V45.4459ZM65.3915 48.0092H87.2035V50.0163H65.3915V48.0092ZM67.0601 53.4743H85.4141V55.2396H67.0601V53.4743ZM65.3432 56.1101H87.1794V58.1172H65.3432V56.1101ZM95.7639 53.1599H111.24V55.7474H95.7639V53.1599ZM96.6103 48.2752H110.418V50.8143H96.6103V48.2752ZM101.737 49.5085H104.639V53.4018C104.639 56.4728 103.454 60.2936 97.6985 62.7843C97.3357 62.1798 96.441 61.1883 95.7639 60.6805C101.229 58.6976 101.737 55.6023 101.737 53.3534V49.5085ZM105.074 54.9978C106.041 57.6819 108.097 59.5681 111.289 60.3903C110.66 60.9707 109.862 62.083 109.475 62.8327C105.896 61.6478 103.816 59.157 102.632 55.5056L105.074 54.9978ZM94.8208 53.4259V62.3248H91.9915V56.1101H89.1623V53.4259H94.8208ZM94.8208 61.0674C95.7881 62.6634 97.6259 63.3647 100.141 63.4614C102.97 63.5823 108.459 63.5098 111.724 63.2438C111.41 63.9208 110.926 65.3234 110.805 66.1939C107.879 66.339 102.994 66.3874 100.092 66.2665C97.1181 66.1456 95.111 65.4443 93.5392 63.5581C92.4752 64.5012 91.387 65.4201 90.0812 66.4841L88.6545 63.4614C89.7426 62.7843 91.0485 61.9379 92.1608 61.0674H94.8208ZM89.2106 46.2923L91.3628 44.5512C92.8137 45.5668 94.6032 47.0903 95.4254 48.2268L93.1039 50.1372C92.3785 49.0007 90.6374 47.3805 89.2106 46.2923ZM106.718 43.9708L109.693 44.8898C108.798 46.2923 107.855 47.719 107.081 48.6621L104.711 47.8158C105.412 46.7518 106.283 45.1558 106.718 43.9708ZM97.239 45.0348L99.7055 44.0434C100.6 45.1316 101.495 46.655 101.834 47.719L99.1977 48.8556C98.9317 47.8158 98.0854 46.2198 97.239 45.0348ZM120.502 49.2183H135.446V52.1685H120.502V49.2183ZM129.764 44.261H132.762V63.1954C132.762 65.0332 132.327 65.807 131.166 66.2423C129.981 66.7018 128.143 66.7501 125.459 66.7259C125.314 65.9279 124.782 64.6221 124.347 63.8483C126.233 63.945 128.337 63.945 128.917 63.9208C129.522 63.8967 129.764 63.7274 129.764 63.1712V44.261ZM121.59 55.0945L124.153 53.8854C125.242 55.6507 126.765 58.0447 127.49 59.5198L124.734 60.9223C124.105 59.4472 122.678 56.9565 121.59 55.0945ZM116.052 51.1045L118.978 48.1785L119.003 48.2268V66.6534H116.052V51.1045ZM118.471 44.1159L121.324 45.0348C119.704 49.2425 117.092 53.6678 114.36 56.4487C114.045 55.7232 113.175 54.1272 112.643 53.4018C114.964 51.2012 117.165 47.6707 118.471 44.1159Z" fill="#7F7F7F"/>
</svg>
